<svg version="1.1" id="Layer_1" xmlns="http://www.w3.org/2000/svg" xmlns:xlink="http://www.w3.org/1999/xlink" x="0px" y="0px"
	 viewBox="106 0.5 960 348" style="enable-background:new 106 0.5 960 348;" xml:space="preserve">
<style type="text/css">
	.st0{fill:#0C84C6;}
	.st1{fill:#65B8EA;}
	.st2{fill:#4A9ACF;}
	.st3{fill:#9AACB2;}
	.st4{fill:#799099;}
	.st5{fill:#E5E5E5;}
	.st6{fill:#9ED89E;}
	.st7{fill:#D5EFF7;}
	.st8{fill:#D6D6D6;}
	.st9{fill:none;stroke:#71BE72;stroke-width:3;stroke-miterlimit:10;}
	.st10{fill:none;stroke:#F4AE7A;stroke-width:3;stroke-miterlimit:10;}
	.st11{fill:none;stroke:#65B8EA;stroke-width:3;stroke-miterlimit:10;}
	.st12{fill:#71BE72;stroke:#FFFFFF;stroke-width:3;stroke-miterlimit:10;}
	.st13{fill:none;stroke:#FFFFFF;stroke-width:5;stroke-linecap:round;stroke-linejoin:round;stroke-miterlimit:10;}
	.st14{fill:#73C073;}
	.st15{fill:#E4F2FB;}
	.st16{fill:#617C84;}
	.st17{fill:#B6E0F4;}
	.st18{fill:#FFFFFF;}
	.st19{fill:#F4AE7A;}
	.st20{fill:#F8A555;}
	.st21{fill:#EEEFEF;}
	.st22{fill:#ED9248;}
	.st23{fill:none;stroke:#84979B;stroke-width:3;stroke-miterlimit:10;stroke-dasharray:6;}
	.st24{fill:#71BE72;}
	.st25{fill:#BDDDF4;}
	.st26{fill:#B0BEC5;}
	.st27{fill:#ECEFF0;}
	.st28{fill:#90A4AE;}
	.st29{clip-path:url(#SVGID_2_);}
	.st30{fill:#B1B2B2;}
	.st31{fill:#E2C9BF;}
	.st32{fill:#F2D9CC;}
	.st33{fill:#66C6C6;}
	.st34{fill:none;}
	.st35{fill:#6C848C;}
	.st36{fill:#2B4955;}
	.st37{fill:#F4C19F;}
</style>
<g>
	<g>
		<g>
			<path class="st0" d="M874.8,293.2v34.1h-36.7v-34.1h10.5l5.2,5.2h5.2l5.2-5.2H874.8z"/>
			<path class="st1" d="M848.5,293.2h15.7v10.5h-15.7V293.2z"/>
			<path class="st1" d="M856.5,293.2h7.9v10.5h-7.9V293.2z"/>
			<path class="st0" d="M916.8,293.2v34.1H880v-34.1h10.5l5.2,5.2h5.2l5.2-5.2H916.8z"/>
			<path class="st1" d="M890.5,293.2h15.7v10.5h-15.7V293.2z"/>
			<path class="st1" d="M898.4,293.2h7.9v10.5h-7.9V293.2z"/>
			<path class="st2" d="M895.8,261.7v31.5h-36.7v-31.5h10.5l5.2,5.2h5.2l5.2-5.2H895.8z"/>
			<path class="st1" d="M869.5,261.7h15.7v10.5h-15.7V261.7z"/>
			<path class="st1" d="M877.4,261.7h7.9v10.5h-7.9V261.7z"/>
			<path class="st3" d="M831.4,327.3h7.1v14.2h-7.1V327.3z"/>
			<path class="st3" d="M859.8,327.3h7.1v14.2h-7.1V327.3z"/>
			<path class="st3" d="M888.1,327.3h7.1v14.2h-7.1V327.3z"/>
			<path class="st3" d="M916.5,327.3h7.1v14.2h-7.1V327.3z"/>
			<path class="st4" d="M817,323.8h121v7.1H817V323.8z"/>
			<path class="st4" d="M877.5,323.8H938v7.1h-60.5V323.8z"/>
			<path class="st4" d="M817,338h121v7.1H817V338z"/>
			<path class="st4" d="M877.5,338H938v7.1h-60.5V338z"/>
		</g>
	</g>
	<g>
		<rect x="767.7" y="241" class="st5" width="16.7" height="13.9"/>
		<rect x="787.7" y="232.4" class="st6" width="16.7" height="22.4"/>
		<rect x="807.8" y="221.9" class="st7" width="16.7" height="33.2"/>
		<rect x="767.7" y="257.9" class="st8" width="56.9" height="4.3"/>
	</g>
	<g>
		<rect x="365.4" y="211.4" class="st8" width="30.7" height="6.5"/>
		<rect x="365.4" y="230.3" class="st8" width="30.7" height="6.5"/>
		<rect x="365.4" y="249.2" class="st8" width="30.7" height="6.5"/>
		<circle class="st9" cx="355" cy="214.6" r="6.4"/>
		<circle class="st10" cx="355" cy="233.4" r="6.4"/>
		<circle class="st11" cx="355" cy="252.4" r="6.4"/>
		<polyline class="st9" points="351.4,215.2 354.2,217.1 358.5,212.1 		"/>
	</g>
	<g>
		<g>
			<g>
				<path class="st4" d="M834.7,137.1l-6.5,11.3l7.6-0.4l3.4,6.8l6-10.5C840.9,143.2,837.2,140.6,834.7,137.1z"/>
				<path class="st4" d="M865.4,137.1c-2.5,3.5-6.2,6.1-10.5,7.3l6,10.5l3.4-6.8l7.6,0.4L865.4,137.1z"/>
			</g>
			<circle class="st12" cx="849.9" cy="126.1" r="18.9"/>
			<circle class="st6" cx="849.9" cy="126.1" r="13.7"/>
		</g>
		<polyline class="st13" points="841.9,128.5 847.3,132.5 857.7,121.3 		"/>
	</g>
	<g>
		<path class="st0" d="M671.8,84.8c-5.8-6.6-13.3-10.8-22.4-12.7c2.9-3.9,4.3-8.2,4.3-12.9c0-6.7-2.6-12.4-7.9-17
			c-5.3-4.7-11.5-7-18.9-7c-6.7,0-12.5,1.9-17.4,5.8c-4.1-9.1-10.8-16.3-19.8-21.7c-9-5.5-19.1-8.2-29.9-8.2
			c-14.9,0-27.4,4.7-38,14.1c-10.4,9.4-15.7,20.8-15.7,34.1c0,0.8,0.1,2.1,0.2,4.1c-8.3,3.5-14.9,8.6-19.7,15.5
			c-4.8,6.9-7.3,14.4-7.3,22.6c0,11.6,4.6,22.7,13.8,31c9.1,8.2,20.2,13.6,33.2,13.6h114.1c11.1,0,20.6-4.7,28.4-11.8
			c7.9-7,11.8-16.1,11.8-26.2C680.5,99.4,677.6,91.3,671.8,84.8z"/>
	</g>
	<g>
		<g>
			<path class="st14" d="M414,82h-19.6v36.7H431V102c0-1.1-0.4-2.1-1-3l-11.4-14.8C417.3,82.8,415.7,82,414,82z"/>
			<path class="st15" d="M413.2,84.3h-16.5v14.7h29.5l-10.4-13.4C415.2,84.9,414.3,84.3,413.2,84.3z"/>
			<rect x="320.8" y="115.9" class="st4" width="110.3" height="6.1"/>
			<g>
				<rect x="357.3" y="115.9" class="st4" width="73.8" height="6.1"/>
				<circle class="st16" cx="339.1" cy="121.7" r="9.2"/>
			</g>
			<g>
				<circle class="st4" cx="339.1" cy="121.7" r="4.7"/>
				<circle class="st16" cx="412.6" cy="121.7" r="9.2"/>
			</g>
			<circle class="st4" cx="412.6" cy="121.7" r="4.7"/>
		</g>
		<rect x="321.7" y="71.1" class="st17" width="72.7" height="44.6"/>
		<g>
			<g>
				<path class="st4" d="M350.1,59.8c-1.1,0-2-0.4-2.8-1.1c-1.5-1.6-1.5-4,0-5.6c3.1-3.1,7.2-4.7,11.6-4.7c4.3,0,8.5,1.7,11.6,4.7
					c1.6,1.5,1.6,4,0,5.6c-0.7,0.7-1.7,1.1-2.8,1.1s-2-0.4-2.8-1.1c-1.6-1.6-3.7-2.5-6-2.5c-2.3,0-4.4,0.8-6,2.5
					C352.2,59.4,351.1,59.8,350.1,59.8z"/>
				<path class="st18" d="M358.9,49.3c4.1,0,7.9,1.6,10.8,4.4c1.1,1.1,1.1,2.9,0,4c-0.5,0.5-1.3,0.8-2,0.8c-0.7,0-1.5-0.3-2-0.8
					c-1.8-1.8-4.2-2.8-6.8-2.8s-5,1-6.8,2.8c-0.5,0.5-1.3,0.8-2,0.8c-0.7,0-1.5-0.3-2-0.8c-1.1-1.1-1.1-2.9,0-4
					C350.9,50.9,354.8,49.3,358.9,49.3 M358.9,47.2c-4.7,0-9,1.8-12.3,5.1c-1.9,1.9-1.9,5.1,0,7.1c1,1,2.2,1.5,3.5,1.5
					c1.4,0,2.5-0.5,3.5-1.5c1.4-1.4,3.3-2.2,5.3-2.2c2,0,3.9,0.7,5.3,2.2c1,1,2.2,1.5,3.5,1.5c1.4,0,2.6-0.5,3.5-1.5
					c1.9-1.9,1.9-5.1,0-7.1C367.9,49,363.5,47.2,358.9,47.2L358.9,47.2z"/>
			</g>
			<g>
				<path class="st4" d="M339.1,50.9c-1.1,0-2-0.4-2.8-1.1c-0.7-0.7-1.1-1.7-1.1-2.8s0.4-2,1.1-2.8c6-6,14-9.3,22.5-9.3
					s16.5,3.3,22.5,9.3c0.7,0.7,1.1,1.7,1.1,2.8s-0.4,2-1.1,2.8c-0.7,0.7-1.7,1.1-2.8,1.1s-2-0.4-2.8-1.1c-4.6-4.6-10.5-6.9-17-6.9
					c-6.5,0-12.5,2.5-17,6.9C341.2,50.5,340.1,50.9,339.1,50.9z"/>
				<path class="st18" d="M358.9,36c8.2,0,15.9,3.2,21.8,9c1.1,1.1,1.1,2.9,0,4c-0.5,0.5-1.3,0.8-2,0.8c-0.7,0-1.5-0.3-2-0.8
					c-4.7-4.7-11-7.3-17.7-7.3c-6.7,0-13,2.6-17.7,7.3c-0.5,0.5-1.3,0.8-2,0.8c-0.7,0-1.5-0.3-2-0.8c-1.1-1.1-1.1-2.9,0-4
					C342.9,39.3,350.6,36,358.9,36 M358.9,33.9c-8.7,0-17,3.3-23.3,9.6c-1.9,1.9-1.9,5.1,0,7.1c1,1,2.2,1.5,3.5,1.5
					c1.4,0,2.5-0.5,3.5-1.5c4.3-4.3,10.1-6.8,16.2-6.8c6.1,0,11.9,2.4,16.2,6.8c1,1,2.2,1.5,3.5,1.5c1.4,0,2.5-0.5,3.5-1.5
					c1.9-1.9,1.9-5.1,0-7.1C375.9,37.3,367.7,33.9,358.9,33.9L358.9,33.9z"/>
			</g>
			<g>
				<path class="st19" d="M358.9,76.9c-3.9,0-7.1-3.2-7.1-7.1c0-3.9,3.2-7.1,7.1-7.1c3.9,0,7.1,3.2,7.1,7.1
					C366,73.7,362.8,76.9,358.9,76.9z"/>
				<path class="st18" d="M358.9,63.8c3.3,0,6,2.8,6,6c0,3.3-2.8,6-6,6c-3.3,0-6-2.8-6-6C352.9,66.5,355.6,63.8,358.9,63.8
					 M358.9,61.6c-4.4,0-8.2,3.7-8.2,8.2c0,4.5,3.7,8.2,8.2,8.2c4.5,0,8.2-3.7,8.2-8.2C367,65.3,363.4,61.6,358.9,61.6L358.9,61.6z"
					/>
			</g>
		</g>
	</g>
	<g>
		<path class="st4" d="M313,303c-6.9,0-13.2-4.4-15.5-11c-0.5-1.3,1.1-2.6,2.9-4c1-0.8,2.5-2,2.5-2.6c0-1.3-1-2.5-2-3.6
			c-1.2-1.5-2.7-3.1-1.3-4.9c3.1-4.3,8.1-6.9,13.4-6.9c9.1,0,16.5,7.4,16.5,16.5C329.5,295.6,322,303,313,303z M313,271.4
			c-4.9,0-9.4,2.4-12.3,6.3c-0.6,0.9-0.1,1.6,1.3,3.2c1.1,1.3,2.3,2.7,2.3,4.5c0,1.2-1.4,2.4-3.1,3.7c-0.8,0.7-2.5,2-2.4,2.4
			c2.1,5.9,7.8,10,14.2,10c8.3,0,15.1-6.7,15.1-15.1S321.3,271.4,313,271.4z"/>
		
			<rect x="278.1" y="272" transform="matrix(0.4502 0.8929 -0.8929 0.4502 426.0303 -90.6556)" class="st0" width="17" height="57.2"/>
		
			<rect x="259.6" y="261.6" transform="matrix(0.8462 0.5328 -0.5328 0.8462 186.7031 -111.5635)" class="st0" width="54.1" height="12.1"/>
		<rect x="249.7" y="310.9" class="st0" width="29.3" height="24.6"/>
		<g>
			<circle class="st2" cx="313.1" cy="286.2" r="11"/>
			<circle class="st20" cx="313.1" cy="286.2" r="5.6"/>
			<path class="st21" d="M313.1,283.5c-1.5,0-2.7,1.2-2.7,2.7c0,1.5,1.2,2.7,2.7,2.7c1.5,0,2.7-1.2,2.7-2.7
				C315.8,284.7,314.6,283.5,313.1,283.5z"/>
		</g>
		<g>
			<circle class="st2" cx="256.4" cy="313.5" r="13.6"/>
			<path class="st20" d="M256.4,306.6c-3.9,0-6.9,3.1-6.9,6.9s3.1,6.9,6.9,6.9c3.9,0,6.9-3.1,6.9-6.9
				C263.3,309.7,260.2,306.6,256.4,306.6z"/>
			<path class="st21" d="M256.4,310.1c-1.9,0-3.4,1.5-3.4,3.4c0,1.9,1.5,3.4,3.4,3.4s3.4-1.5,3.4-3.4
				C259.8,311.7,258.2,310.1,256.4,310.1z"/>
		</g>
		<rect x="246.8" y="340.7" class="st0" width="33.8" height="3.5"/>
		<rect x="243.6" y="334.1" class="st2" width="41.9" height="6.6"/>
		<g>
			<polygon class="st4" points="253.8,251.7 234.4,256.9 234,254.4 252.8,245.5 			"/>
			<polygon class="st4" points="255.3,259.9 235.3,261.6 235.7,264 256.4,266.1 			"/>
		</g>
		<path class="st2" d="M269.9,254.1c-1.6-8.2-9.6-13.6-17.8-12.1c2.1,10.9,3.1,16,5.7,29.9C266.1,270.4,271.5,262.4,269.9,254.1z"/>
		<polygon class="st0" points="252.6,244.2 251.6,245.5 255.9,269.6 257.6,270.3 		"/>
	</g>
	<g>
		<g>
			<path class="st4" d="M258.6,241.8c-1.1,0-2-0.4-2.8-1.1c-1.5-1.6-1.5-4,0-5.6c3.1-3.1,7.2-4.7,11.6-4.7c4.3,0,8.5,1.7,11.6,4.7
				c1.6,1.5,1.6,4,0,5.6c-0.7,0.7-1.7,1.1-2.8,1.1c-1.1,0-2-0.4-2.8-1.1c-1.6-1.6-3.7-2.5-6-2.5c-2.3,0-4.4,0.8-6,2.5
				C260.7,241.4,259.6,241.8,258.6,241.8z"/>
			<path class="st18" d="M267.4,231.3c4.1,0,7.9,1.6,10.8,4.4c1.1,1.1,1.1,2.9,0,4c-0.5,0.5-1.3,0.8-2,0.8s-1.5-0.3-2-0.8
				c-1.8-1.8-4.2-2.8-6.8-2.8c-2.5,0-5,1-6.8,2.8c-0.5,0.5-1.3,0.8-2,0.8s-1.5-0.3-2-0.8c-1.1-1.1-1.1-2.9,0-4
				C259.4,232.9,263.3,231.3,267.4,231.3 M267.4,229.2c-4.7,0-9,1.8-12.3,5.1c-1.9,1.9-1.9,5.1,0,7.1c1,1,2.2,1.5,3.5,1.5
				c1.4,0,2.5-0.5,3.5-1.5c1.4-1.4,3.3-2.2,5.3-2.2s3.9,0.7,5.3,2.2c1,1,2.2,1.5,3.5,1.5c1.4,0,2.6-0.5,3.5-1.5
				c1.9-1.9,1.9-5.1,0-7.1C276.4,231,272,229.2,267.4,229.2L267.4,229.2z"/>
		</g>
		<g>
			<path class="st4" d="M247.6,233c-1.1,0-2-0.4-2.8-1.1s-1.1-1.7-1.1-2.8c0-1.1,0.4-2,1.1-2.8c6-6,14.1-9.2,22.5-9.2
				s16.5,3.3,22.5,9.3c0.7,0.7,1.1,1.7,1.1,2.8c0,1.1-0.4,2-1.1,2.8s-1.7,1.1-2.8,1.1c-1.1,0-2-0.4-2.8-1.1
				c-4.6-4.6-10.5-6.9-17-6.9s-12.5,2.5-17,6.9C249.7,232.5,248.6,233,247.6,233z"/>
			<path class="st18" d="M267.4,218c8.2,0,15.9,3.2,21.8,9c1.1,1.1,1.1,2.9,0,4c-0.5,0.5-1.3,0.8-2,0.8c-0.7,0-1.5-0.3-2-0.8
				c-4.7-4.7-11-7.3-17.7-7.3s-13,2.6-17.7,7.3c-0.5,0.5-1.3,0.8-2,0.8c-0.7,0-1.5-0.3-2-0.8c-1.1-1.1-1.1-2.9,0-4
				C251.4,221.3,259.1,218,267.4,218 M267.4,215.9c-8.7,0-17,3.3-23.3,9.6c-1.9,1.9-1.9,5.1,0,7.1c1,1,2.2,1.5,3.5,1.5
				c1.4,0,2.5-0.5,3.5-1.5c4.3-4.3,10.1-6.8,16.2-6.8s11.9,2.4,16.2,6.8c1,1,2.2,1.5,3.5,1.5c1.4,0,2.5-0.5,3.5-1.5
				c1.9-1.9,1.9-5.1,0-7.1C284.4,219.3,276.2,215.9,267.4,215.9L267.4,215.9z"/>
		</g>
		<g>
			<path class="st20" d="M267.4,258.8c-3.9,0-7.1-3.2-7.1-7.1s3.2-7.1,7.1-7.1s7.1,3.2,7.1,7.1C274.5,255.7,271.3,258.8,267.4,258.8
				z"/>
			<path class="st18" d="M267.4,245.8c3.3,0,6,2.8,6,6s-2.8,6-6,6s-6-2.8-6-6C261.4,248.6,264.1,245.8,267.4,245.8 M267.4,243.7
				c-4.4,0-8.2,3.7-8.2,8.2c0,4.4,3.7,8.2,8.2,8.2s8.2-3.7,8.2-8.2C275.5,247.3,271.9,243.7,267.4,243.7L267.4,243.7z"/>
		</g>
	</g>
	<g>
		<rect x="706.4" y="319.3" class="st4" width="29.2" height="4.8"/>
		
			<rect x="684.7" y="220.1" transform="matrix(-0.5167 0.8561 -0.8561 -0.5167 1243.9762 -230.6026)" class="st16" width="4.7" height="31.4"/>
		
			<rect x="664.1" y="213.2" transform="matrix(-0.5168 0.8561 -0.8561 -0.5168 1200.0801 -231.8267)" class="st0" width="2.8" height="19.1"/>
		<path class="st20" d="M711.1,304.2c0,0,0-23.8,0-28.2c0-7.5-4.4-16.2-11.8-21.2c-7.3-5.1-34-15.9-38.3-18.2
			c-4.7-2.5-5.9-4-6.5-6.2c-0.7-2.1,1-4.6,2.9-3.9c1.9,0.7,43.6,14.6,50.5,17.8s15.6,15.7,15.6,27.8c0,10,0,32.3,0,32.3L711.1,304.2
			L711.1,304.2z"/>
		<path class="st22" d="M629.1,294.4c0,0,25.9-58.3,27-61c1.2-2.8,2.4-15.6,2.4-17.8c0-2.3-3.8-1.7-5.1-0.9
			c-1.5,0.9-10,11.3-10.9,13.3c-0.9,2-17.2,61.8-17.2,63.5C625.3,293.2,628.4,294.4,629.1,294.4z"/>
		<path class="st20" d="M779.9,303.1c-0.7-3.5-3.9-6-7.5-6h-46.5v22.3h51.9c1.5,0,2.8-0.7,3.7-1.7s1.2-2.5,0.9-3.9L779.9,303.1z"/>
		<path class="st16" d="M687.7,344.4c-5.8,0-10.5-4.7-10.5-10.5c0-5.8,4.7-10.5,10.5-10.5c0.2,0,23.9-1.7,31.8-1.7
			c7.8,0,31.6,1.7,31.8,1.7l0,0c5.7,0,10.5,4.7,10.5,10.5c0,5.8-4.7,10.5-10.5,10.5H687.7z"/>
		<path class="st4" d="M751.3,342.9c5,0,9.1-4.1,9.1-9.1c0-5-4-9.1-9-9.1h-0.1c-0.2,0-23.9-1.7-31.8-1.7c-7.9,0-31.4,1.7-31.7,1.7
			l0,0h-0.1c-5,0-9.1,4.1-9.1,9.1c0,5,4.1,9.1,9.1,9.1H751.3z"/>
		<circle class="st0" cx="687.7" cy="333.9" r="9.1"/>
		<path class="st16" d="M687.7,339.1c-2.9,0-5.1-2.4-5.1-5.1c0-2.9,2.4-5.1,5.1-5.1c2.9,0,5.1,2.4,5.1,5.1
			C692.9,336.8,690.5,339.1,687.7,339.1z"/>
		<circle class="st0" cx="733.7" cy="326.8" r="2.6"/>
		<circle class="st0" cx="733.6" cy="340.2" r="2.6"/>
		<circle class="st0" cx="705.3" cy="340.2" r="2.6"/>
		<circle class="st0" cx="705.3" cy="326.8" r="2.6"/>
		<circle class="st0" cx="751.3" cy="333.9" r="9.1"/>
		<path class="st16" d="M751.3,339.1c-2.9,0-5.1-2.4-5.1-5.1c0-2.9,2.4-5.1,5.1-5.1c2.9,0,5.1,2.4,5.1,5.1
			C756.5,336.8,754.1,339.1,751.3,339.1z"/>
		<rect x="686.6" y="330.1" class="st20" width="65.8" height="7.5"/>
		<path class="st22" d="M725.9,319.3h-27.2c-2.6,0-4.7-2.1-4.7-4.7v-5.6c0-5.5-0.9-20.2,5.9-28.3c0.6-0.7,1.4-1.1,2.3-1.1H722
			c1.2,0,2.3,1,2.4,2.1l1.5,15.1V319.3L725.9,319.3z"/>
		<path class="st18" d="M698.9,316.7c-1.3,0-2.4-1.1-2.4-2.4v-5.5c0-0.5,0-1.1,0-1.7c-0.1-5.9-0.2-17.9,5.2-24.5
			c0.2-0.2,0.3-0.2,0.5-0.2h19.4c0.1,0,0.1,0.1,0.2,0.1l1.1,11.4c0.2,2-0.9,3.8-2.7,4.6L717,300c-1.9,0.8-3.3,2.4-3.9,4.3l-2.9,9.1
			c-0.6,1.9-2.4,3.2-4.3,3.2L698.9,316.7L698.9,316.7z"/>
		<g>
			<path class="st16" d="M747.1,299.7h-10.2c-0.3,0-0.6,0.7-0.6,1.6h0.6h0.6h9.1h0.6h0.6C747.7,300.4,747.4,299.7,747.1,299.7z"/>
			<path class="st16" d="M747.1,303h-10.2c-0.3,0-0.6,0.7-0.6,1.6h0.6h0.6h9.1h0.6h0.6C747.7,303.7,747.4,303,747.1,303z"/>
			<path class="st16" d="M747.1,306.3h-10.2c-0.3,0-0.6,0.7-0.6,1.6h0.6h0.6h9.1h0.6h0.6C747.7,307,747.4,306.3,747.1,306.3z"/>
			<path class="st16" d="M760.1,299.7h-10.2c-0.3,0-0.6,0.7-0.6,1.6h0.6h0.6h9.1h0.6h0.6C760.7,300.4,760.4,299.7,760.1,299.7z"/>
			<path class="st16" d="M760.1,303h-10.2c-0.3,0-0.6,0.7-0.6,1.6h0.6h0.6h9.1h0.6h0.6C760.7,303.7,760.4,303,760.1,303z"/>
			<path class="st16" d="M760.1,306.3h-10.2c-0.3,0-0.6,0.7-0.6,1.6h0.6h0.6h9.1h0.6h0.6C760.7,307,760.4,306.3,760.1,306.3z"/>
			<path class="st16" d="M773.1,299.7h-10.2c-0.3,0-0.6,0.7-0.6,1.6h0.6h0.6h9.1h0.6h0.6C773.7,300.4,773.4,299.7,773.1,299.7z"/>
			<path class="st16" d="M773.1,303h-10.2c-0.3,0-0.6,0.7-0.6,1.6h0.6h0.6h9.1h0.6h0.6C773.7,303.7,773.4,303,773.1,303z"/>
			<path class="st16" d="M773.1,306.3h-10.2c-0.3,0-0.6,0.7-0.6,1.6h0.6h0.6h9.1h0.6h0.6C773.7,307,773.4,306.3,773.1,306.3z"/>
		</g>
		<path class="st22" d="M733.6,291.3h32.2c1,0,1.8,0.7,1.8,1.8v4h-35.7v-4C731.9,292.1,732.7,291.3,733.6,291.3z"/>
		<rect x="735.5" y="291.3" class="st4" width="1.3" height="3.7"/>
		<rect x="739.4" y="291.3" class="st4" width="1.3" height="3.7"/>
		<rect x="743.3" y="291.3" class="st4" width="1.3" height="3.7"/>
		<rect x="747.2" y="291.3" class="st4" width="1.3" height="3.7"/>
		<rect x="751" y="291.3" class="st4" width="1.3" height="3.7"/>
		<rect x="755" y="291.3" class="st4" width="1.3" height="3.7"/>
		<rect x="758.8" y="291.3" class="st4" width="1.3" height="3.7"/>
		<rect x="762.6" y="291.3" class="st4" width="1.3" height="3.7"/>
		<g>
			<path class="st20" d="M633.5,293.1l-3.9-2.7c-1.4-1-3.3-0.2-3.8,1.5l-1,7.7l5.7,16.6L633.5,293.1z"/>
			<path class="st16" d="M650.1,302c0,0,4.6,0.2,5.3-0.1c1.3-0.4,4.2-6.9,5.3-7.5c1.1-0.7,1.5-0.7,1.5-0.7l-4.2,10.9l-3.8-0.5
				L650.1,302z"/>
			<path class="st0" d="M654.8,310.3l-24.9-13.6l3-5.6c0,0,8.4,6.8,11.5,8.5c3.2,1.7,13.4,5.1,13.4,5.1L654.8,310.3z"/>
			<path class="st4" d="M642.4,303.5l-11.7-6.3c0,0-2.3,11.3-2.7,13.7c-0.5,2.5,1.6,4.7,2.6,5.3c1,0.6,3.8,2,3.8,2s2.8,1.6,3.8,2
				c1,0.5,4,1.1,5.9-0.7c1.8-1.7,10-9.7,10-9.7L642.4,303.5z"/>
		</g>
	</g>
	<g>
		<g>
			<path class="st4" d="M637.8,219.6c-1.1,0-2-0.4-2.8-1.1c-1.5-1.6-1.5-4,0-5.6c3.1-3.1,7.2-4.7,11.6-4.7c4.3,0,8.5,1.7,11.6,4.7
				c1.6,1.5,1.6,4,0,5.6c-0.7,0.7-1.7,1.1-2.8,1.1s-2-0.4-2.8-1.1c-1.6-1.6-3.7-2.5-6-2.5c-2.3,0-4.4,0.8-6,2.5
				C639.8,219.2,638.8,219.6,637.8,219.6z"/>
			<path class="st18" d="M646.6,209.2c4.1,0,7.9,1.6,10.8,4.4c1.1,1.1,1.1,2.9,0,4c-0.5,0.5-1.3,0.8-2,0.8c-0.7,0-1.5-0.3-2-0.8
				c-1.8-1.8-4.2-2.8-6.8-2.8s-5,1-6.8,2.8c-0.5,0.5-1.3,0.8-2,0.8c-0.7,0-1.5-0.3-2-0.8c-1.1-1.1-1.1-2.9,0-4
				C638.6,210.8,642.5,209.2,646.6,209.2 M646.6,207.1c-4.7,0-9,1.8-12.3,5.1c-1.9,1.9-1.9,5.1,0,7.1c1,1,2.2,1.5,3.5,1.5
				c1.4,0,2.5-0.5,3.5-1.5c1.4-1.4,3.3-2.2,5.3-2.2s3.9,0.7,5.3,2.2c1,1,2.2,1.5,3.5,1.5c1.4,0,2.6-0.5,3.5-1.5
				c1.9-1.9,1.9-5.1,0-7.1C655.6,208.9,651.3,207.1,646.6,207.1L646.6,207.1z"/>
		</g>
		<g>
			<path class="st4" d="M626.9,210.9c-1.1,0-2-0.4-2.8-1.1s-1.1-1.7-1.1-2.8s0.4-2,1.1-2.8c6-6,14-9.3,22.5-9.3
				c8.5,0,16.5,3.3,22.5,9.3c0.7,0.7,1.1,1.7,1.1,2.8s-0.4,2-1.1,2.8c-0.7,0.7-1.7,1.1-2.8,1.1c-1.1,0-2-0.4-2.8-1.1
				c-4.6-4.6-10.5-6.9-17-6.9s-12.5,2.5-17,6.9C628.9,210.5,627.8,210.9,626.9,210.9z"/>
			<path class="st18" d="M646.6,195.9c8.2,0,15.9,3.2,21.8,9c1.1,1.1,1.1,2.9,0,4c-0.5,0.5-1.3,0.8-2,0.8s-1.5-0.3-2-0.8
				c-4.7-4.7-11-7.3-17.7-7.3s-13,2.6-17.7,7.3c-0.5,0.5-1.3,0.8-2,0.8c-0.7,0-1.5-0.3-2-0.8c-1.1-1.1-1.1-2.9,0-4
				C630.6,199.1,638.4,195.9,646.6,195.9 M646.6,193.8c-8.7,0-17,3.3-23.3,9.6c-1.9,1.9-1.9,5.1,0,7.1c1,1,2.2,1.5,3.5,1.5
				c1.4,0,2.5-0.5,3.5-1.5c4.3-4.3,10.1-6.8,16.2-6.8s11.9,2.4,16.2,6.8c1,1,2.2,1.5,3.5,1.5c1.4,0,2.5-0.5,3.5-1.5
				c1.9-1.9,1.9-5.1,0-7.1C663.7,197.3,655.4,193.8,646.6,193.8L646.6,193.8z"/>
		</g>
		<g>
			<path class="st20" d="M646.6,236.8c-3.9,0-7.1-3.2-7.1-7.1s3.2-7.1,7.1-7.1s7.1,3.2,7.1,7.1S650.5,236.8,646.6,236.8z"/>
			<path class="st18" d="M646.6,223.6c3.3,0,6,2.8,6,6s-2.8,6-6,6s-6-2.8-6-6C640.6,226.4,643.4,223.6,646.6,223.6 M646.6,221.6
				c-4.4,0-8.2,3.7-8.2,8.2c0,4.4,3.7,8.2,8.2,8.2c4.4,0,8.2-3.7,8.2-8.2C654.8,225.3,651.2,221.6,646.6,221.6L646.6,221.6z"/>
		</g>
	</g>
	<line class="st23" x1="466.5" y1="82.6" x2="425.1" y2="82.6"/>
	<path class="st23" d="M264.4,214.6v-31.2c0-6.9,5.6-12.4,12.4-12.4H513c7.1,0,12.8-5.7,12.8-12.8v-8.6"/>
	<path class="st23" d="M491.8,228.8h53.7c8.7,0,15.8-7.1,15.8-15.8v-42.5"/>
	<g>
		<circle class="st18" cx="554.9" cy="284.8" r="19.3"/>
		<g>
			<g>
				<g>
					<path class="st1" d="M556.5,281.1c0-0.6-0.5-1.1-1.1-1.1h-4.3c-0.6,0-1.1,0.5-1.1,1.1v13.3c0,0.6,0.5,1.1,1.1,1.1h4.3
						c0.6,0,1.1-0.5,1.1-1.1V281.1z"/>
					<path class="st24" d="M547.5,286.8c0-0.6-0.5-1.1-1.1-1.1h-4.3c-0.6,0-1.1,0.5-1.1,1.1v6.8c0,0.6,0.5,1.1,1.1,1.1h4.3
						c0.6,0,1.1-0.5,1.1-1.1V286.8z"/>
					<path class="st20" d="M566.3,275.4c0-0.6-0.5-1.1-1.1-1.1h-4.3c-0.6,0-1.1,0.5-1.1,1.1v19.8c0,0.6,0.5,1.1,1.1,1.1h4.3
						c0.6,0,1.1-0.5,1.1-1.1V275.4z"/>
					<path class="st3" d="M584.5,311.2l-13-13c3.1-3.8,4.9-8.5,4.9-13.7c0-12-9.7-21.7-21.7-21.7c-12,0-21.7,9.7-21.7,21.7
						c0,12,9.7,21.7,21.7,21.7c5.2,0,10-1.9,13.7-4.9l13,13c0.4,0.4,1,0.7,1.6,0.7c0.6,0,1.1-0.2,1.6-0.7
						C585.3,313.4,585.3,312,584.5,311.2z M554.7,301.9c-9.6,0-17.4-7.8-17.4-17.4c0-9.6,7.8-17.4,17.4-17.4
						c9.6,0,17.4,7.8,17.4,17.4C572,294,564.2,301.9,554.7,301.9z"/>
				</g>
			</g>
		</g>
	</g>
	<polygon class="st4" points="466.5,75.5 478.8,82.5 466.5,89.6 	"/>
	<polygon class="st4" points="518.7,158.3 525.8,146.1 532.9,158.3 	"/>
	<polygon class="st4" points="553.5,170.7 560.6,158.4 567.7,170.7 	"/>
	<g>
		<polygon class="st5" points="602.8,87.6 599.8,85.5 605.2,77.1 608.3,79 		"/>
		<path class="st19" d="M610.1,81.3l1-1.5c0.6-0.8,0.3-2-0.6-2.5l-4.5-2.9c-0.8-0.6-2-0.3-2.5,0.6l-1,1.5c-0.6,0.8-0.3,2,0.6,2.5
			l4.5,2.9C608.4,82.4,609.4,82.1,610.1,81.3z"/>
		<polygon class="st5" points="556.9,87.6 551.4,79 554.5,77.1 560,85.5 		"/>
		<path class="st19" d="M579.9,78.4c-6,0-10.9-4.9-10.9-10.9s4.9-10.9,10.9-10.9s10.9,4.9,10.9,10.9S585.9,78.4,579.9,78.4z
			 M579.9,60.3c-4,0-7.3,3.2-7.3,7.3c0,4,3.2,7.3,7.3,7.3s7.3-3.2,7.3-7.3S583.9,60.3,579.9,60.3z"/>
		<rect x="578.1" y="69.3" class="st5" width="3.6" height="10.9"/>
		<circle class="st19" cx="579.9" cy="120.2" r="41.9"/>
		<path class="st19" d="M582.6,71.1H577c-1,0-1.8-0.8-1.8-1.8v-1.8c0-1,0.8-1.8,1.8-1.8h5.5c1,0,1.8,0.8,1.8,1.8v1.8
			C584.4,70.2,583.6,71.1,582.6,71.1z"/>
		<circle class="st5" cx="579.9" cy="120.2" r="38.2"/>
		<circle class="st18" cx="579.9" cy="120.2" r="34.6"/>
		<path class="st25" d="M599.2,139.6c10.6-10.6,10.6-27.9,0-38.6c-5.2-5.2-12.2-8-19.3-8v27.3L599.2,139.6z"/>
		<path class="st19" d="M549.7,81.3l-1-1.5c-0.6-0.8-0.3-2,0.6-2.5l4.5-2.9c0.8-0.6,2-0.3,2.5,0.6l1,1.5c0.6,0.8,0.3,2-0.6,2.5
			l-4.5,2.9C551.4,82.4,550.3,82.1,549.7,81.3z"/>
		<path class="st4" d="M579.9,89.3L579.9,89.3c-1,0-1.8,0.8-1.8,1.8v3.6c0,1,0.8,1.8,1.8,1.8l0,0c1,0,1.8-0.8,1.8-1.8v-3.6
			C581.8,90.1,580.8,89.3,579.9,89.3z"/>
		<path class="st4" d="M579.9,143.9L579.9,143.9c-1,0-1.8,0.8-1.8,1.8v3.6c0,1,0.8,1.8,1.8,1.8l0,0c1,0,1.8-0.8,1.8-1.8v-3.6
			C581.8,144.7,580.8,143.9,579.9,143.9z"/>
		<path class="st4" d="M610.8,120.2L610.8,120.2c0-1-0.8-1.8-1.8-1.8h-3.6c-1,0-1.8,0.8-1.8,1.8l0,0c0,1,0.8,1.8,1.8,1.8h3.6
			C610.1,122.1,610.8,121.2,610.8,120.2z"/>
		<path class="st4" d="M556.2,120.2L556.2,120.2c0-1-0.8-1.8-1.8-1.8h-3.6c-1,0-1.8,0.8-1.8,1.8l0,0c0,1,0.8,1.8,1.8,1.8h3.6
			C555.5,122.1,556.2,121.2,556.2,120.2z"/>
		<path class="st26" d="M564.4,147L564.4,147c0.9,0.6,2,0.2,2.5-0.6l1.8-3.1c0.6-0.9,0.2-2-0.6-2.5l0,0c-0.9-0.6-2-0.2-2.5,0.6
			l-1.8,3.1C563.2,145.5,563.5,146.6,564.4,147z"/>
		<path class="st26" d="M591.7,99.8L591.7,99.8c0.9,0.6,2,0.2,2.5-0.6L596,96c0.6-0.9,0.2-2-0.6-2.5l0,0c-0.9-0.6-2-0.2-2.5,0.6
			l-1.8,3.1C590.5,98.2,590.8,99.2,591.7,99.8z"/>
		<path class="st26" d="M553.1,104.8L553.1,104.8c-0.6,0.9-0.2,2,0.6,2.5l3.1,1.8c0.9,0.6,2,0.2,2.5-0.6l0,0c0.6-0.9,0.2-2-0.6-2.5
			l-3.1-1.8C554.6,103.6,553.5,103.9,553.1,104.8z"/>
		<path class="st26" d="M600.4,132.1L600.4,132.1c-0.6,0.9-0.2,2,0.6,2.5l3.1,1.8c0.9,0.6,2,0.2,2.5-0.6l0,0c0.6-0.9,0.2-2-0.6-2.5
			l-3.1-1.8C602,130.9,600.9,131.2,600.4,132.1z"/>
		<path class="st26" d="M595.4,147L595.4,147c-0.9,0.6-2,0.2-2.5-0.6l-1.8-3.1c-0.6-0.9-0.2-2,0.6-2.5l0,0c0.9-0.6,2-0.2,2.5,0.6
			l1.8,3.1C596.5,145.5,596.2,146.6,595.4,147z"/>
		<path class="st26" d="M568.1,99.8L568.1,99.8c-0.9,0.6-2,0.2-2.5-0.6l-1.8-3.1c-0.6-0.9-0.2-2,0.6-2.5l0,0c0.9-0.6,2-0.2,2.5,0.6
			l1.8,3.1C569.2,98.2,568.9,99.2,568.1,99.8z"/>
		<path class="st26" d="M606.7,104.8L606.7,104.8c0.6,0.9,0.2,2-0.6,2.5l-3.1,1.8c-0.9,0.6-2,0.2-2.5-0.6l0,0
			c-0.6-0.9-0.2-2,0.6-2.5l3.1-1.8C605.1,103.6,606.2,103.9,606.7,104.8z"/>
		<path class="st26" d="M559.4,132.1L559.4,132.1c0.6,0.9,0.2,2-0.6,2.5l-3.1,1.8c-0.9,0.6-2,0.2-2.5-0.6l0,0
			c-0.6-0.9-0.2-2,0.6-2.5l3.1-1.8C557.8,130.9,558.8,131.2,559.4,132.1z"/>
		<path class="st4" d="M599.9,142.2c-0.5,0-0.9-0.2-1.3-0.6l-23.7-23.7c-0.7-0.7-0.7-1.8,0-2.5c0.7-0.7,1.8-0.7,2.5,0l23.7,23.6
			c0.7,0.7,0.7,1.8,0,2.5C600.9,141.9,600.4,142.2,599.9,142.2z"/>
		<circle class="st27" cx="579.9" cy="120.2" r="3.6"/>
	</g>
	<g>
		<g>
			<path class="st3" d="M403.8,340.9h-6.9v-13.8h6.9V340.9z"/>
			<g>
				<path class="st5" d="M433.8,290.4l-0.8,5.2l2.2,3l5.2,0.8l4.4,6.1l-19.7,14.2l-15.3-21.2l19.7-14.2L433.8,290.4z"/>
				<polygon class="st24" points="437.1,295 440.4,299.5 434.3,303.9 431,299.4 427.8,294.8 433.8,290.4 				"/>
			</g>
			<g>
				
					<rect x="457.1" y="257.1" transform="matrix(-0.6387 -0.7695 0.7695 -0.6387 549.3129 806.1017)" class="st22" width="13.7" height="33.9"/>
				
					<rect x="447.6" y="234.7" transform="matrix(-0.7008 -0.7134 0.7134 -0.7008 620.2611 745.0075)" class="st22" width="37.5" height="15.5"/>
				<path class="st22" d="M423,209.8c1,10.8,10.2,19.3,21.3,19.3s20.2-8.5,21.3-19.3H423z"/>
				<g>
					<circle class="st0" cx="480.1" cy="257.6" r="12.5"/>
					<circle class="st28" cx="480.1" cy="257.6" r="6.4"/>
					<circle class="st21" cx="480.1" cy="257.6" r="3.1"/>
				</g>
				<g>
					<circle class="st0" cx="450" cy="225.8" r="12.5"/>
					<circle class="st28" cx="450" cy="225.8" r="6.4"/>
					<circle class="st21" cx="450" cy="225.8" r="3.1"/>
				</g>
				<rect x="422.5" y="207.3" class="st28" width="43.5" height="2.5"/>
				<path class="st0" d="M421.9,290c0.1-0.5,1.8-13.1,11.2-15.7c7.6-2.2,13.3,2.7,15.3,5.6l-4.1,2.8c-0.1-0.2-3.8-5.3-9.8-3.6
					c-6.2,1.8-7.6,11.5-7.7,11.6L421.9,290z"/>
				<path class="st0" d="M446.4,310.8c-4.4,1.1-8.5,0.7-8.8,0.6l0.6-4.9c0.1,0,9.9,1,13.1-4.5c3.2-5.5-1-10.4-1.1-10.4l3.8-3.3
					c2.3,2.6,5.6,9.4,1.6,16.2C453.4,308.1,449.8,309.9,446.4,310.8z"/>
				<g>
					<circle class="st22" cx="445.3" cy="288.7" r="8.5"/>
					
						<rect x="439.1" y="281.7" transform="matrix(-0.601 -0.7993 0.7993 -0.601 487.4695 817.0972)" class="st28" width="17.2" height="10.3"/>
					
						<rect x="435.4" y="287.7" transform="matrix(-0.601 -0.7993 0.7993 -0.601 482.6285 818.0356)" class="st4" width="20.2" height="1.6"/>
					
						<rect x="437.9" y="285.8" transform="matrix(-0.6009 -0.7993 0.7993 -0.6009 488.1932 816.9319)" class="st4" width="20.2" height="1.6"/>
				</g>
			</g>
			<path class="st3" d="M485.1,340.9h-6.9v-13.8h6.9V340.9z"/>
			<path class="st3" d="M457.5,340.9h-6.9v-13.8h6.9V340.9z"/>
			<path class="st3" d="M429.9,340.9H423v-13.8h6.9V340.9z"/>
			<path class="st4" d="M499.1,330.5H381.5v-6.9h117.7L499.1,330.5L499.1,330.5z"/>
			<path class="st4" d="M440.3,330.5h-58.8v-6.9h58.8V330.5z"/>
			<path class="st4" d="M499.1,344.2H381.5v-6.9h117.7L499.1,344.2L499.1,344.2z"/>
			<path class="st4" d="M440.3,344.2h-58.8v-6.9h58.8V344.2z"/>
		</g>
		<g>
			<g>
				<path class="st4" d="M486.1,218c-1.6-1.7-3.7-2.5-6-2.5s-4.4,1-6,2.5c-0.7,0.7-1.7,1.1-2.8,1.1s-2-0.4-2.8-1.1
					c-1.6-1.6-1.6-4.1,0-5.6c3.2-3.1,7.3-4.7,11.6-4.7c4.4,0,8.6,1.7,11.6,4.7c1.5,1.6,1.5,4,0,5.6c-0.7,0.7-1.7,1.1-2.8,1.1
					S486.9,218.7,486.1,218z"/>
				<path class="st18" d="M480.1,208.7c4.1,0,8,1.6,10.8,4.4c1.1,1.1,1.1,2.9,0,4c-0.5,0.5-1.3,0.8-2,0.8c-0.7,0-1.5-0.3-2-0.8
					c-1.8-1.8-4.2-2.8-6.8-2.8c-2.5,0-5,1-6.8,2.8c-0.5,0.5-1.3,0.8-2,0.8c-0.7,0-1.5-0.3-2-0.8c-1.1-1.1-1.1-2.9,0-4
					C472.2,210.3,476,208.7,480.1,208.7 M480.1,206.7c-4.7,0-9,1.8-12.2,5.1c-1.9,2-1.9,5.1,0,7.1c0.8,1,2.1,1.5,3.5,1.5
					c1.3,0,2.5-0.5,3.5-1.5c1.4-1.5,3.3-2.2,5.3-2.2s3.9,0.8,5.3,2.2c1,1,2.1,1.5,3.5,1.5c1.3,0,2.5-0.5,3.5-1.5
					c1.9-2,1.9-5.1,0-7.1C489.1,208.5,484.8,206.7,480.1,206.7L480.1,206.7z"/>
			</g>
			<g>
				<path class="st4" d="M497.2,209.3c-4.6-4.4-10.5-6.9-17-6.9s-12.5,2.4-17,6.9c-0.7,0.7-1.7,1.1-2.8,1.1s-2-0.4-2.8-1.1
					c-0.7-0.7-1.1-1.7-1.1-2.8s0.4-2,1.1-2.8c6-6,14-9.3,22.5-9.3c8.5,0,16.5,3.3,22.5,9.3c0.7,0.7,1.1,1.7,1.1,2.8s-0.4,2-1.1,2.8
					c-0.7,0.7-1.7,1.1-2.8,1.1C499,210.4,497.9,210,497.2,209.3z"/>
				<path class="st18" d="M480.1,195.4c8.2,0,16.1,3.3,21.8,9c1.1,1.1,1.1,2.9,0,4c-0.5,0.5-1.3,0.8-2,0.8c-0.7,0-1.5-0.3-2-0.8
					c-4.7-4.7-11.1-7.3-17.7-7.3c-6.8,0-13,2.5-17.7,7.3c-0.5,0.5-1.3,0.8-2,0.8c-0.7,0-1.5-0.3-2-0.8c-1.1-1.1-1.1-2.9,0-4
					C464.2,198.6,471.9,195.4,480.1,195.4 M480.1,193.4c-8.7,0-17,3.5-23.3,9.6c-1.9,2-1.9,5.1,0,7.1c1,1,2.1,1.5,3.5,1.5
					c1.3,0,2.5-0.5,3.5-1.5c4.3-4.3,10.1-6.8,16.2-6.8c6.1,0,11.9,2.4,16.2,6.8c1,1,2.1,1.5,3.5,1.5c1.3,0,2.5-0.5,3.5-1.5
					c1.9-2,1.9-5.1,0-7.1C497.2,196.7,488.9,193.4,480.1,193.4L480.1,193.4z"/>
			</g>
			<g>
				<path class="st20" d="M473.1,229.3c0-3.9,3.2-7.1,7.1-7.1c3.9,0,7.1,3.2,7.1,7.1s-3.2,7.1-7.1,7.1S473.1,233.2,473.1,229.3z"/>
				<path class="st18" d="M480.1,223.2c3.3,0,6,2.8,6,6c0,3.3-2.8,6-6,6s-6-2.8-6-6C474.2,225.9,476.9,223.2,480.1,223.2
					 M480.1,221.1c-4.6,0-8.2,3.7-8.2,8.2c0,4.4,3.7,8.2,8.2,8.2c4.4,0,8.2-3.7,8.2-8.2S484.6,221.1,480.1,221.1L480.1,221.1z"/>
			</g>
		</g>
	</g>
	<path class="st23" d="M636.7,229.8h-22.5c-5.9,0-10.6-4.7-10.6-10.6v-55.9"/>
	<path class="st1" d="M279.4,147.8c-1.1,0-2.3-0.5-3.1-1.2c-3.3-3.3-6.2-6.9-8.4-10.5c-1.8-2.9-3.3-5.9-4.2-8.9
		c-0.7-2.2-1.2-4.2-1.6-6.2c-0.2-1.4-0.2-2.2-0.2-2.5c0-2.4,0.5-4.6,1.4-6.8c0.9-2.1,2.2-4,3.8-5.6c1.6-1.6,3.5-2.9,5.6-3.8
		c2.2-0.9,4.4-1.4,6.8-1.4s4.7,0.5,6.8,1.4c2,0.8,3.9,2.1,5.6,3.8s2.9,3.5,3.8,5.6c0.9,2.1,1.4,4.4,1.4,6.8c0,0.3,0,1.2-0.2,2.5
		c-0.2,2-0.7,4.1-1.6,6.2c-1,2.9-2.4,6-4.2,8.9c-2.2,3.6-5.1,7.1-8.4,10.5C281.7,147.3,280.6,147.8,279.4,147.8z M279.4,110.5
		c-5.1,0-9.1,4.1-9.1,9.1s4.1,9.1,9.1,9.1s9.1-4.1,9.1-9.1S284.5,110.5,279.4,110.5z"/>
	<polygon class="st4" points="596.2,170 603.2,157.8 610.3,170 	"/>
	<g>
		<path class="st23" d="M878.1,222.1v-38c0-6.9-5.6-12.4-12.4-12.4H649.5c-7.1,0-12.8-5.7-12.8-12.8v-8.6"/>
		<polygon class="st4" points="629.6,158.1 636.7,145.8 643.8,158.1 		"/>
	</g>
	<g>
		<g>
			<path class="st4" d="M868.6,245.9c-1.1,0-2-0.4-2.8-1.1c-1.5-1.6-1.5-4,0-5.6c3.1-3.1,7.2-4.7,11.6-4.7c4.3,0,8.5,1.7,11.6,4.7
				c1.6,1.5,1.6,4,0,5.6c-0.7,0.7-1.7,1.1-2.8,1.1c-1.1,0-2-0.4-2.8-1.1c-1.6-1.6-3.7-2.5-6-2.5c-2.3,0-4.4,0.8-6,2.5
				C870.7,245.4,869.7,245.9,868.6,245.9z"/>
			<path class="st18" d="M877.5,235.4c4.1,0,7.9,1.6,10.8,4.4c1.1,1.1,1.1,2.9,0,4c-0.5,0.5-1.3,0.8-2,0.8c-0.7,0-1.5-0.3-2-0.8
				c-1.8-1.8-4.2-2.8-6.8-2.8s-5,1-6.8,2.8c-0.5,0.5-1.3,0.8-2,0.8c-0.7,0-1.5-0.3-2-0.8c-1.1-1.1-1.1-2.9,0-4
				C869.4,237,873.3,235.4,877.5,235.4 M877.5,233.3c-4.7,0-9,1.8-12.3,5.1c-1.9,1.9-1.9,5.1,0,7.1c1,1,2.2,1.5,3.5,1.5
				c1.4,0,2.5-0.5,3.5-1.5c1.4-1.4,3.3-2.2,5.3-2.2s3.9,0.7,5.3,2.2c1,1,2.2,1.5,3.5,1.5c1.4,0,2.6-0.5,3.5-1.5
				c1.9-1.9,1.9-5.1,0-7.1C886.5,235.1,882.1,233.3,877.5,233.3L877.5,233.3z"/>
		</g>
		<g>
			<path class="st4" d="M857.7,237.1c-1.1,0-2-0.4-2.8-1.1s-1.1-1.7-1.1-2.8s0.4-2,1.1-2.8c6-6,14-9.3,22.5-9.3
				c8.5,0,16.5,3.3,22.5,9.3c0.7,0.7,1.1,1.7,1.1,2.8s-0.4,2-1.1,2.8c-0.7,0.7-1.7,1.1-2.8,1.1s-2-0.4-2.8-1.1
				c-4.6-4.6-10.5-6.9-17-6.9c-6.5,0-12.5,2.5-17,6.9C859.7,236.7,858.6,237.1,857.7,237.1z"/>
			<path class="st18" d="M877.5,222.1c8.2,0,15.9,3.2,21.8,9c1.1,1.1,1.1,2.9,0,4c-0.5,0.5-1.3,0.8-2,0.8s-1.5-0.3-2-0.8
				c-4.7-4.7-11-7.3-17.7-7.3s-13,2.6-17.7,7.3c-0.5,0.5-1.3,0.8-2,0.8s-1.5-0.3-2-0.8c-1.1-1.1-1.1-2.9,0-4
				C861.4,225.3,869.2,222.1,877.5,222.1 M877.5,220c-8.7,0-17,3.3-23.3,9.6c-1.9,1.9-1.9,5.1,0,7.1c1,1,2.2,1.5,3.5,1.5
				c1.4,0,2.5-0.5,3.5-1.5c4.3-4.3,10.1-6.8,16.2-6.8s11.9,2.4,16.2,6.8c1,1,2.2,1.5,3.5,1.5c1.4,0,2.5-0.5,3.5-1.5
				c1.9-1.9,1.9-5.1,0-7.1C894.5,223.5,886.2,220,877.5,220L877.5,220z"/>
		</g>
		<g>
			<path class="st20" d="M877.5,263c-3.9,0-7.1-3.2-7.1-7.1c0-3.9,3.2-7.1,7.1-7.1s7.1,3.2,7.1,7.1C884.6,259.8,881.4,263,877.5,263
				z"/>
			<path class="st18" d="M877.5,249.9c3.3,0,6,2.8,6,6s-2.8,6-6,6s-6-2.8-6-6C871.5,252.6,874.2,249.9,877.5,249.9 M877.5,247.8
				c-4.4,0-8.2,3.7-8.2,8.2s3.7,8.2,8.2,8.2c4.4,0,8.2-3.7,8.2-8.2C885.7,251.5,882,247.8,877.5,247.8L877.5,247.8z"/>
		</g>
	</g>
	<g>
		<g>
			<defs>
				<rect id="SVGID_1_" x="717.5" y="15.1" width="117.3" height="119.5"/>
			</defs>
			<clipPath id="SVGID_2_">
				<use xlink:href="#SVGID_1_"  style="overflow:visible;"/>
			</clipPath>
			<g class="st29">
				<g>
					<path class="st30" d="M738.1,189.4c0-5.6,4.6-10.2,10.1-10.2h49.3c5.6,0,10.1,4.7,10.1,10.2l0,0c0,5.6-4.5,10.2-10.1,10.2
						h-49.3C742.6,199.7,738.1,195,738.1,189.4L738.1,189.4z"/>
					<g>
						<g>
							<path class="st31" d="M766.4,81c0.8,1.1,1.8,2.1,3,2.8v2.1h0.4V86h8.5v-0.1l0,0v-2c1-0.5,1.9-1.2,2.6-2l-11.3-6.5h-0.1v2.9
								C768.7,79.5,767.7,80.5,766.4,81z"/>
							<path class="st31" d="M769.6,76.6l11.3,5.4c0.1-0.1,0.2-0.2,0.3-0.3l-0.4-1.1c-1.1-0.7-2-1.8-2.5-3l0,0v-3.7L769.6,76.6z"/>
						</g>
						<g>
							<path class="st32" d="M773.8,50.5v26.9c6.4-0.2,11.4-6.8,11.4-14.9C785.3,54.4,780,50.7,773.8,50.5z"/>
							<path class="st32" d="M761.8,62.4c0,8.2,5.2,14.9,11.8,14.9c0.1,0,0.2,0,0.2,0V50.4c-0.2,0-0.3,0-0.6,0
								C766.8,50.4,761.8,54.2,761.8,62.4z"/>
						</g>
						
							<ellipse transform="matrix(0.1449 0.9894 -0.9894 0.1449 714.0966 -699.0748)" class="st31" cx="761.5" cy="63.6" rx="3.2" ry="1.6"/>
						
							<ellipse transform="matrix(9.621030e-002 -0.9954 0.9954 9.621030e-002 647.2132 839.598)" class="st31" cx="785.9" cy="63.4" rx="3.1" ry="1.4"/>
					</g>
					<path class="st33" d="M793.1,89.8C793.1,89.9,793.1,89.9,793.1,89.8L793.1,89.8L793.1,89.8z"/>
					<path class="st25" d="M753.4,97.7c2.8,0.3,3.1-2.4,4.1-3.6l3.2,5.6l-1.1,1.5l0.7,33.6l13.7-0.1l13.6-0.1l0.4-35.6l3.2-5.2
						l4.7,0.8l1.9,4.4l-4.2-13.1l-0.5-1.5c0,0,0,0,0-0.1c-0.9-1.6-2.8-2.9-4.4-2.5l0,0h-4.1l0,0c-1,0-2-0.3-2.9-0.7l0,0l-0.9-0.6
						l0.1-0.2l-0.3-0.5c0,0-6.5,2.8-13.1,0l-0.6,0.4l0.2,0.2l-1.4,0.8c-0.7,0.2-1.4,0.4-2,0.4l-3.6,0.1c-0.3-0.1-0.6,0-0.9,0
						l-0.6,0.1c-2,0.5-3,2.4-3,2.4l-1.6,4.9l0,0L753.4,97.7z"/>
					<g>
						<path class="st4" d="M788.3,94.3l-0.9-12.4c-1.5-0.2-3.3,0-4.5-0.3l-0.1,12.7L788.3,94.3L788.3,94.3z"/>
						<path class="st4" d="M759.5,94.3h6.1V81.4c-2.3,0.6-2.9,0.2-4.5,0.4L759.5,94.3L759.5,94.3z"/>
					</g>
					<g>
						<path class="st34" d="M787.2,97.3v-0.2c0-0.6-0.5-1.1-1.1-1.1h-1.8c-0.6,0-1.1,0.5-1.1,1.1v0.2c0,0.6,0.5,1.1,1.1,1.1h1.8
							C786.7,98.3,787.1,97.9,787.2,97.3z"/>
						<path class="st3" d="M759.5,130v58c0,3.4,2.8,6.1,6.1,6.1c3.3,0,6.1-2.7,6.1-6.1v-47.9c0.9-0.6,1.8-0.7,2.6-0.7
							c0.7,0,1.2,0.2,1.7,0.5l0,0V188c0,3.4,2.7,6.1,6.1,6.1c3.4,0,6.1-2.7,6.1-6.1v-52.2l0,0V95.1h-14h-14.8L759.5,130L759.5,130z
							 M783.3,97.1c0-0.6,0.5-1.1,1.1-1.1h1.8c0.6,0,1.1,0.5,1.1,1.1v0.2c0,0.6-0.5,1.1-1.1,1.1h-1.8c-0.6,0-1.1-0.5-1.1-1.1V97.1z
							 M760.5,96.9c0-0.6,0.5-1.1,1.1-1.1h1.8c0.6,0,1.1,0.5,1.1,1.1v0.2c0,0.6-0.5,1.1-1.1,1.1h-1.8c-0.6,0-1.1-0.5-1.1-1.1V96.9z"
							/>
					</g>
					<g>
						<path class="st35" d="M764.9,106.8v10.8c0,1,0.8,1.9,1.9,1.9h7.6h7.8c1,0,1.9-0.8,1.9-1.9v-10.8h-9.6H764.9z"/>
						<path class="st4" d="M764.9,105.1v1.7h9.5h9.6v-1.7c0-1-0.8-1.9-1.9-1.9h-7.8h-7.6C765.7,103.2,764.9,104.1,764.9,105.1z"/>
					</g>
					<path class="st16" d="M773.6,105.5c0,0.4,0.3,0.7,0.7,0.7l0,0c0.4,0,0.7-0.3,0.7-0.7c0-0.4-0.3-0.7-0.8-0.7l0,0
						C773.9,104.8,773.6,105.1,773.6,105.5z"/>
					<path class="st32" d="M746.1,110.5l6.5-2l7.3,14c0.7,1.6,0.3,3.3-0.9,4.4c-0.2,0.2-0.6,0.5-0.9,0.6c-1.9,0.9-4.1,0.1-5-1.7
						L746.1,110.5z"/>
					<path class="st25" d="M757.7,117.5l0.6-0.2l-5-9.6l5.8-13.1l-3.4-10l-11.2,20.8c-0.7,1.3-0.8,2.9-0.1,4.2l6,11.8L757.7,117.5z"
						/>
					<g>
						
							<rect x="780.4" y="109.3" transform="matrix(-0.6429 0.7659 -0.7659 -0.6429 1389.3839 -406.4074)" class="st1" width="18" height="22.8"/>
						
							<rect x="781.3" y="110.5" transform="matrix(-0.6429 0.7659 -0.7659 -0.6429 1389.3436 -406.3326)" class="st18" width="16.1" height="20.3"/>
						<g>
							<g>
								<path class="st7" d="M779.4,117.1l2.3-2.8l0.2-0.2l2.3-2.7c-1.1-0.2-1.8-1.1-1.8-1.1l-2,2.6l-2.2,2.4
									C778.1,115.5,779,116.1,779.4,117.1z"/>
								<path class="st4" d="M779.3,117.1c-0.2-0.2-0.2-0.4-0.1-0.6l4.4-5.2c0.1-0.2,0.4-0.2,0.6-0.1l0,0c0.2,0.1,0.2,0.4,0.1,0.6
									l-4.4,5.2C779.7,117.3,779.5,117.3,779.3,117.1L779.3,117.1z"/>
								<path class="st4" d="M778.1,115.6c-0.2-0.1-0.2-0.3,0-0.5l4-4.7c0.1-0.1,0.3-0.2,0.5,0l0,0c0.1,0.1,0.2,0.3,0,0.5l-4,4.7
									C778.4,115.7,778.2,115.7,778.1,115.6L778.1,115.6z"/>
							</g>
							<g>
								<path class="st7" d="M779.1,114.5l2.5-3l-0.5-0.3c-0.8-0.7-2.1-0.6-2.8,0.2c-0.7,0.8-0.6,2.1,0.2,2.8L779.1,114.5z
									 M778.9,112.8c-0.3-0.2-0.3-0.7-0.1-1.1c0.2-0.3,0.7-0.3,1.1-0.1c0.3,0.2,0.3,0.7,0.1,1.1
									C779.7,113,779.2,113.1,778.9,112.8z"/>
							</g>
						</g>
						<g>
							
								<rect x="787.7" y="111.2" transform="matrix(-0.6431 0.7658 -0.7658 -0.6431 1380.7899 -420.0021)" class="st16" width="1.2" height="1.2"/>
							
								<rect x="778.5" y="116.5" transform="matrix(-0.6429 0.7659 -0.7659 -0.6429 1377.3464 -407.82)" class="st16" width="10.5" height="1.2"/>
						</g>
						<g>
							
								<rect x="789.4" y="112.7" transform="matrix(-0.643 0.7658 -0.7658 -0.643 1384.7013 -418.8617)" class="st16" width="1.2" height="1.2"/>
							
								<rect x="780.7" y="117.8" transform="matrix(-0.6429 0.7659 -0.7659 -0.6429 1381.451 -407.2312)" class="st16" width="10" height="1.2"/>
						</g>
						<g>
							
								<rect x="791.1" y="114.1" transform="matrix(-0.6429 0.7659 -0.7659 -0.6429 1388.657 -417.9702)" class="st36" width="1.2" height="1.2"/>
							
								<rect x="783.4" y="118.8" transform="matrix(-0.6429 0.7659 -0.7659 -0.6429 1385.6882 -407.2052)" class="st16" width="8.7" height="1.2"/>
						</g>
						<g>
							
								<rect x="792.9" y="115.6" transform="matrix(-0.6429 0.766 -0.766 -0.6429 1392.6462 -416.9459)" class="st36" width="1.2" height="1.2"/>
							
								<rect x="785.8" y="120" transform="matrix(-0.6429 0.7659 -0.7659 -0.6429 1389.8213 -406.7865)" class="st16" width="7.8" height="1.2"/>
						</g>
						<g>
							
								<rect x="794.7" y="117" transform="matrix(-0.6429 0.766 -0.766 -0.6429 1396.6523 -415.9986)" class="st36" width="1.2" height="1.2"/>
							
								<rect x="785.6" y="122.3" transform="matrix(-0.6429 0.7659 -0.7659 -0.6429 1393.2806 -403.7422)" class="st16" width="10.2" height="1.2"/>
						</g>
						<g>
							
								<rect x="796.4" y="118.5" transform="matrix(-0.6429 0.766 -0.766 -0.6429 1400.6385 -414.8701)" class="st16" width="1.2" height="1.2"/>
							
								<rect x="787.4" y="123.8" transform="matrix(-0.6429 0.7659 -0.7659 -0.6429 1397.2611 -402.6098)" class="st16" width="10.2" height="1.2"/>
						</g>
					</g>
					<path class="st32" d="M802.3,110.5l-6.5-2l-7.3,14c-0.7,1.6-0.3,3.3,0.9,4.4c0.2,0.2,0.6,0.5,0.9,0.6c1.9,0.9,4.1,0.1,5-1.7
						L802.3,110.5z"/>
					<path class="st25" d="M788.8,120.4l6.5-12.9l-6.8-13.8l4.4-9.3l11.2,20.8c0.7,1.3,0.8,2.9,0.1,4.2l-7.4,15L788.8,120.4z"/>
					<g>
						<path class="st20" d="M788.2,57.4v-3.6c0-7.8-6.1-14.5-14-14.7c-8.2-0.2-14.8,6.4-14.8,14.5v3.9h-2.2v2.2l1.8,0.7
							c4.7,2,9.7,3.1,14.9,3.1l0,0c5.1,0,10.2-1.1,14.9-3.1l1.8-0.7v-2.2L788.2,57.4L788.2,57.4z"/>
						<g>
							<path class="st37" d="M776.5,39.6v-0.2c-0.7-0.2-1.6-0.2-2.4-0.2c-1.1-0.1-2.1,0.1-3.2,0.2v0.3L772,53h3.3L776.5,39.6z"/>
							<path class="st37" d="M783.8,50.7c0-2.2,0.3-4.4,0.8-6.5l0,0c-0.7-0.9-1.6-1.7-2.6-2.4c-1,2.5-1.6,5.2-1.6,7.9V53h3.3
								L783.8,50.7L783.8,50.7z"/>
							<path class="st37" d="M767.1,53v-3.3c0-2.8-0.6-5.5-1.6-7.9c-1,0.7-1.9,1.5-2.7,2.4c0.6,2.1,0.9,4.4,0.9,6.6V53H767.1z"/>
						</g>
						<rect x="759.4" y="55.7" class="st22" width="28.9" height="1.6"/>
					</g>
				</g>
				<polygon class="st1" points="757.4,117.5 758.6,119.9 752,123 750.9,120.8 				"/>
			</g>
		</g>
	</g>
	<polygon class="st1" points="753.2,118.6 755.1,122.7 751.6,124.3 749.5,120.1 	"/>
	<g>
		<g>
			<path class="st4" d="M733.3,121.8c0,1.1-0.4,2-1.1,2.8c-1.6,1.5-4,1.5-5.6,0c-3.1-3.1-4.7-7.2-4.7-11.6c0-4.3,1.7-8.5,4.7-11.6
				c1.5-1.6,4-1.6,5.6,0c0.7,0.7,1.1,1.7,1.1,2.8c0,1.1-0.4,2-1.1,2.8c-1.6,1.6-2.5,3.7-2.5,6c0,2.3,0.8,4.4,2.5,6
				C732.9,119.7,733.3,120.8,733.3,121.8z"/>
			<path class="st18" d="M722.9,113c0-4.1,1.6-7.9,4.4-10.8c1.1-1.1,2.9-1.1,4,0c0.5,0.5,0.8,1.3,0.8,2s-0.3,1.5-0.8,2
				c-1.8,1.8-2.8,4.2-2.8,6.8s1,5,2.8,6.8c0.5,0.5,0.8,1.3,0.8,2s-0.3,1.5-0.8,2c-1.1,1.1-2.9,1.1-4,0
				C724.4,121,722.9,117.1,722.9,113 M720.8,113c0,4.7,1.8,9,5.1,12.3c1.9,1.9,5.1,1.9,7.1,0c1-1,1.5-2.2,1.5-3.5
				c0-1.4-0.5-2.5-1.5-3.5c-1.4-1.4-2.2-3.3-2.2-5.3c0-2,0.7-3.9,2.2-5.3c1-1,1.5-2.2,1.5-3.5c0-1.4-0.5-2.6-1.5-3.5
				c-1.9-1.9-5.1-1.9-7.1,0C722.6,104,720.8,108.4,720.8,113L720.8,113z"/>
		</g>
		<g>
			<path class="st4" d="M724.6,132.8c0,1.1-0.4,2-1.1,2.8c-0.7,0.7-1.7,1.1-2.8,1.1c-1.1,0-2-0.4-2.8-1.1c-6-6-9.3-14-9.3-22.5
				s3.3-16.5,9.3-22.5c0.7-0.7,1.7-1.1,2.8-1.1c1.1,0,2,0.4,2.8,1.1c0.7,0.7,1.1,1.7,1.1,2.8c0,1.1-0.4,2-1.1,2.8
				c-4.6,4.6-6.9,10.5-6.9,17c0,6.5,2.5,12.5,6.9,17C724.1,130.7,724.6,131.8,724.6,132.8z"/>
			<path class="st18" d="M709.6,113c0-8.2,3.2-15.9,9-21.8c1.1-1.1,2.9-1.1,4,0c0.5,0.5,0.8,1.3,0.8,2s-0.3,1.5-0.8,2
				c-4.7,4.7-7.3,11-7.3,17.7c0,6.7,2.6,13,7.3,17.7c0.5,0.5,0.8,1.3,0.8,2s-0.3,1.5-0.8,2c-1.1,1.1-2.9,1.1-4,0
				C712.8,129,709.6,121.3,709.6,113 M707.5,113c0,8.7,3.3,17,9.6,23.3c1.9,1.9,5.1,1.9,7.1,0c1-1,1.5-2.2,1.5-3.5
				c0-1.4-0.5-2.5-1.5-3.5c-4.3-4.3-6.8-10.1-6.8-16.2c0-6.1,2.4-11.9,6.8-16.2c1-1,1.5-2.2,1.5-3.5c0-1.4-0.5-2.5-1.5-3.5
				c-1.9-1.9-5.1-1.9-7.1,0C711,95.9,707.5,104.2,707.5,113L707.5,113z"/>
		</g>
		<g>
			<path class="st20" d="M750.5,113c0,3.9-3.2,7.1-7.1,7.1s-7.1-3.2-7.1-7.1s3.2-7.1,7.1-7.1C747.3,105.9,750.5,109.1,750.5,113z"/>
			<path class="st18" d="M737.3,113c0-3.3,2.8-6,6-6s6,2.8,6,6s-2.8,6-6,6S737.3,116.3,737.3,113 M735.2,113c0,4.4,3.7,8.2,8.2,8.2
				s8.2-3.7,8.2-8.2c0-4.5-3.7-8.2-8.2-8.2C739,104.8,735.2,108.4,735.2,113L735.2,113z"/>
		</g>
	</g>
	<line class="st23" x1="693.1" y1="82.6" x2="745" y2="82.5"/>
	<polygon class="st4" points="690.4,89.6 678.1,82.6 690.4,75.5 	"/>
	<g>
		<path class="st24" d="M735.4,235.5c-1.1,0-2-0.4-2.9-1.1c-3.3-3.3-6-6.6-8.2-10.1c-1.8-2.9-3.2-5.7-4.2-8.6
			c-0.7-2.1-1.2-4.2-1.5-6c-0.2-1.3-0.2-2.2-0.2-2.4c0-2.3,0.4-4.4,1.3-6.5c0.8-2,2-3.8,3.6-5.4c1.6-1.6,3.3-2.8,5.3-3.6
			c2-0.9,4.2-1.3,6.5-1.3c2.3,0,4.5,0.4,6.5,1.3c2,0.8,3.8,2,5.4,3.6c1.6,1.6,2.8,3.3,3.6,5.3c0.9,2,1.3,4.2,1.3,6.5
			c0,0.3,0,1.1-0.2,2.4c-0.2,2-0.7,4-1.5,6c-1,2.9-2.4,5.8-4.2,8.6c-2.2,3.5-4.9,6.9-8.2,10.1C737.4,235.1,736.4,235.5,735.4,235.5z
			 M735.4,199c-5.1,0-9.1,4.1-9.1,9.1c0,5.1,4.1,9.1,9.1,9.1s9.1-4.1,9.1-9.1C744.5,203.1,740.4,199,735.4,199z"/>
		<path class="st18" d="M735.4,190.8c2.2,0,4.3,0.4,6.4,1.3c2,0.8,3.7,2,5.1,3.5c1.5,1.5,2.7,3.3,3.5,5.1c0.8,2,1.3,4.2,1.3,6.4
			c0,0.3,0,1.1-0.2,2.4c-0.2,2-0.7,3.9-1.4,6c-1,2.8-2.4,5.7-4.1,8.5c-2.2,3.4-4.9,6.9-8.1,10c-0.7,0.7-1.6,1.1-2.5,1.1
			s-1.8-0.3-2.5-1.1c-3.3-3.2-6-6.6-8.1-10c-1.8-2.8-3.2-5.6-4.1-8.5c-0.7-2-1.1-4.1-1.4-6c-0.2-1.3-0.2-2-0.2-2.4
			c0-2.2,0.4-4.3,1.3-6.3c0.8-2,2-3.7,3.5-5.2c1.5-1.5,3.3-2.7,5.1-3.5C731,191.3,733.2,190.8,735.4,190.8 M735.4,217.8
			c5.3,0,9.6-4.3,9.6-9.6c0-5.3-4.3-9.6-9.6-9.6s-9.6,4.3-9.6,9.6C725.7,213.5,730,217.8,735.4,217.8 M735.4,189.8
			c-2.3,0-4.7,0.4-6.8,1.4c-2,0.9-3.9,2.1-5.6,3.7c-1.6,1.6-2.9,3.4-3.7,5.6c-0.9,2.1-1.4,4.4-1.4,6.7c0,0.3,0,1.1,0.2,2.5
			c0.2,2,0.7,4,1.5,6.1c1,2.9,2.4,5.9,4.2,8.7c2.2,3.5,5,7,8.2,10.2c0.8,0.8,2,1.3,3.2,1.3c1.1,0,2.3-0.4,3.2-1.3
			c3.3-3.3,6-6.7,8.2-10.2c1.8-2.9,3.2-5.8,4.2-8.7c0.7-2.1,1.2-4.2,1.5-6.1c0.2-1.3,0.2-2.2,0.2-2.5c0-2.3-0.4-4.6-1.4-6.7
			c-0.9-2-2.1-3.9-3.7-5.6c-1.6-1.6-3.4-2.9-5.6-3.7C739.9,190.3,737.7,189.8,735.4,189.8L735.4,189.8z M735.4,216.8
			c-4.7,0-8.7-3.9-8.7-8.7s3.9-8.7,8.7-8.7s8.7,3.9,8.7,8.7C744,213,740.1,216.8,735.4,216.8L735.4,216.8z"/>
	</g>
</g>
</svg>
