<?xml version="1.0" encoding="UTF-8"?>
<!DOCTYPE svg PUBLIC "-//W3C//DTD SVG 1.1//EN" "http://www.w3.org/Graphics/SVG/1.1/DTD/svg11.dtd">
<!-- Creator: CorelDRAW -->
<svg xmlns="http://www.w3.org/2000/svg" xml:space="preserve" width="14.1429cm" height="10cm" style="shape-rendering:geometricPrecision; text-rendering:geometricPrecision; image-rendering:optimizeQuality; fill-rule:evenodd; clip-rule:evenodd"
viewBox="0 0 14.1429 10">
 <defs>
  <style type="text/css">
   <![CDATA[
    .str1 {stroke:#3BB3C2;stroke-width:0.00362857}
    .str0 {stroke:white;stroke-width:0.00362857}
    .fil2 {fill:#3BB3C2}
    .fil1 {fill:#1D4383}
    .fil0 {fill:#18478B;fill-rule:nonzero}
   ]]>
  </style>
 </defs>
 <g id="Camada_x0020_1">
  <metadata id="CorelCorpID_0Corel-Layer"/>
  <path class="fil0 str0" d="M7.01685 4.4736l0 0.22571 -0.0503476 0c-0.0121619,-0.0779333 -0.0819857,-0.151124 -0.16281,-0.163171 -0.379443,-0.0563095 -0.393629,0.595876 -0.0275524,0.595876 0.0878905,0 0.165114,-0.0363429 0.237571,-0.0805095l0.0393238 0.0431333c-0.259571,0.22549 -0.737848,0.112062 -0.737848,-0.268829 0,-0.251076 0.248233,-0.39619 0.48299,-0.356514 0.0458095,0.00774286 0.141857,0.0626524 0.171476,0.00862857l0.0471952 -0.00432381zm0.113281 0.362267c0,-0.489871 0.841671,-0.505819 0.841671,-0.00575238 0,0.508529 -0.841671,0.502733 -0.841671,0.00575238zm0.1998 -0.00286667c0,0.145371 0.0508952,0.309067 0.228114,0.309067 0.297743,0 0.295405,-0.618138 -0.00157619,-0.618138 -0.176548,0 -0.226538,0.159433 -0.226538,0.309071zm0.709524 -0.309071l0 -0.0460048 0.314633 0 0 0.0804952c0.211624,-0.133719 0.498733,-0.151052 0.498733,0.176824 0,0.128157 -0.0687667,0.416895 0.13371,0.416895l0 0.0431238 -0.420048 0 0 -0.0488714c0.184148,0 0.114843,-0.2836 0.114843,-0.40061 0,-0.234762 -0.178033,-0.232114 -0.327238,-0.0972762 0,0.103024 -0.0397571,0.374329 0.018881,0.461457 0.0199095,0.029181 0.0691381,0.0364286 0.102267,0.0364286l0 0.0488714 -0.427929 0 0 -0.0474429c0.0360571,-0.00250476 0.0858952,-0.0042381 0.109357,-0.035219 0.0456143,-0.0602238 0.0473571,-0.495486 0.0031381,-0.553452 -0.0219048,-0.0287286 -0.0841429,-0.035219 -0.120348,-0.035219zm0.987995 0l0 -0.0460048 0.314648 0 0 0.0804952c0.211624,-0.133719 0.498719,-0.151052 0.498719,0.176824 0,0.128157 -0.0687667,0.416895 0.13371,0.416895l0 0.0431238 -0.420048 0 0 -0.0488714c0.184143,0 0.114843,-0.2836 0.114843,-0.40061 0,-0.234719 -0.178048,-0.232157 -0.327224,-0.0972762 0,0.102995 -0.0397762,0.374343 0.0188667,0.461457 0.0199095,0.029181 0.0691381,0.0364286 0.102267,0.0364286l0 0.0488714 -0.427929 0 0 -0.0474429c0.0360524,-0.00250476 0.0858952,-0.0042381 0.109357,-0.035219 0.0456143,-0.0602238 0.0473524,-0.495486 0.0031381,-0.553452 -0.0219048,-0.0287286 -0.0841429,-0.035219 -0.120348,-0.035219zm1.76359 0.242938l-0.547486 0c-0.0182143,0.302014 0.265748,0.491905 0.494005,0.238633l0.0487714 0.0474429c-0.242462,0.263767 -0.737848,0.178876 -0.737848,-0.221386 0,-0.43771 0.6718,-0.517838 0.742557,-0.0646905zm-0.539619 -0.0661286l0.34611 0c-0.0139333,-0.231095 -0.312148,-0.22721 -0.34611,0zm1.34039 -0.227138l0 0.22571 -0.0503429 0c-0.0121619,-0.0779333 -0.0819857,-0.151124 -0.16281,-0.163171 -0.379443,-0.0563095 -0.393629,0.595876 -0.0275524,0.595876 0.0878905,0 0.165114,-0.0363429 0.237567,-0.0805095l0.0393286 0.0431333c-0.259571,0.22549 -0.737848,0.112062 -0.737848,-0.268829 0,-0.251076 0.248229,-0.39619 0.48299,-0.356514 0.0458095,0.00774286 0.141857,0.0626524 0.171476,0.00862857l0.0471905 -0.00432381zm0.0645143 0.0558286l0.311495 -0.21539 0 0.163886 0.239129 0 0 0.0790667 -0.239129 0c0,0.173943 -0.101581,0.702843 0.238876,0.517524l0.0348667 0.0445619c-0.2023,0.150176 -0.451524,0.129538 -0.451524,-0.18569l0 -0.376395 -0.133714 0 0 -0.0275619zm0.555338 0.306438c0,-0.489871 0.841676,-0.505819 0.841676,-0.00575238 0,0.508529 -0.841676,0.502733 -0.841676,0.00575238zm0.199805 -0.00286667c0,0.145386 0.0508905,0.309067 0.228124,0.309067 0.297695,0 0.295376,-0.618138 -0.00157619,-0.618138 -0.176562,0 -0.226548,0.159419 -0.226548,0.309071zm0.711081 0.362262l0 -0.0474429c0.132124,0 0.135305,-0.0705714 0.135305,-0.181133 0,-0.147252 0.0818667,-0.441333 -0.130562,-0.441333l-0.00474286 -0.0488714 0.31151 0 0 0.140881c0.0473571,-0.0723048 0.111038,-0.163871 0.208724,-0.163871 0.138157,0 0.124329,0.197662 -0.0246667,0.152371 -0.1706,-0.0936048 -0.240124,0.428324 -0.163343,0.512967 0.0225381,0.0252762 0.0732714,0.0289905 0.105148,0.0289905l0 0.0474429 -0.437371 0z"/>
  <g id="_214896272">
   <rect id="_214896032" class="fil1" x="1.06856" y="3.03681" width="0.136124" height="1.13331"/>
   <rect id="_214896512" class="fil1" x="1.57222" y="3.49631" width="0.149737" height="1.06177"/>
   <rect id="_214895912" class="fil1" x="2.08949" y="3.76175" width="0.149737" height="1.06177"/>
   <rect id="_214895888" class="fil1" x="2.59315" y="3.99316" width="0.149737" height="1.06177"/>
   <rect id="_214896176" class="fil1" x="3.12404" y="4.13609" width="0.149737" height="1.06177"/>
   <rect id="_214896488" class="fil1" x="3.60728" y="4.21777" width="0.149737" height="1.06177"/>
   <rect id="_214896416" class="fil1" x="4.11774" y="4.26541" width="0.149737" height="1.06177"/>
   <rect id="_214896536" class="fil1" x="4.6214" y="4.26541" width="0.149737" height="1.06177"/>
   <rect id="_214896128" class="fil1" x="5.1659" y="4.25861" width="0.149737" height="1.06177"/>
  </g>
  <g id="_214895192">
   <rect id="_214895672" class="fil2 str1" x="0.837152" y="5.49734" width="0.108899" height="1.07538"/>
   <rect id="_214895600" class="fil2 str1" x="1.36804" y="5.04813" width="0.108899" height="1.07538"/>
   <rect id="_214895744" class="fil2 str1" x="1.85808" y="4.78949" width="0.108899" height="1.07538"/>
   <rect id="_214894904" class="fil2 str1" x="2.36855" y="4.56489" width="0.108899" height="1.07538"/>
   <rect id="_214894808" class="fil2 str1" x="2.87901" y="4.41515" width="0.108899" height="1.07538"/>
   <rect id="_214895312" class="fil2 str1" x="3.36906" y="4.31306" width="0.108899" height="1.07538"/>
   <rect id="_214895384" class="fil2 str1" x="3.87953" y="4.25861" width="0.108899" height="1.07538"/>
   <rect id="_214894976" class="fil2 str1" x="4.3968" y="4.25861" width="0.108899" height="1.07538"/>
   <rect id="_214895264" class="fil2 str1" x="4.91407" y="4.25861" width="0.108899" height="1.07538"/>
  </g>
 </g>
</svg>
